<svg width="170" height="170" viewBox="0 0 170 170" fill="none" xmlns="http://www.w3.org/2000/svg">
<rect x="62.8918" y="2.89111" width="120" height="120" rx="10" transform="rotate(30 62.8918 2.89111)" fill="#CAD2FF"/>
<rect x="84.8528" y="1.41421" width="118" height="118" rx="9" transform="rotate(45 84.8528 1.41421)" fill="white" stroke="#0862EE" stroke-width="2"/>
<path d="M98.677 59.25C98.6822 61.2298 98.2196 63.1829 97.327 64.95C96.2687 67.0677 94.6416 68.8488 92.6282 70.094C90.6147 71.3391 88.2944 71.9991 85.927 72C83.9472 72.0052 81.9942 71.5426 80.227 70.65L71.677 73.5L74.527 64.95C73.6344 63.1829 73.1718 61.2298 73.177 59.25C73.1779 56.8827 73.8379 54.5623 75.0831 52.5489C76.3282 50.5354 78.1094 48.9084 80.227 47.85C81.9942 46.9574 83.9472 46.4949 85.927 46.5H86.677C89.8035 46.6725 92.7566 47.9922 94.9707 50.2063C97.1849 52.4205 98.5045 55.3735 98.677 58.5V59.25Z" stroke="#CFE5FF" stroke-width="3" stroke-linecap="round" stroke-linejoin="round"/>
<path d="M48.4271 104H46.4551V93.749H40.6411V104H38.6691V91.981H48.4271V104ZM54.9089 94.888C55.6229 94.888 56.2519 95.0013 56.7959 95.228C57.3399 95.4547 57.7989 95.772 58.1729 96.18C58.5583 96.5767 58.8473 97.0583 59.0399 97.625C59.2326 98.1917 59.3289 98.8207 59.3289 99.512C59.3289 100.215 59.2326 100.849 59.0399 101.416C58.8586 101.971 58.5809 102.453 58.2069 102.861C57.8329 103.269 57.3683 103.581 56.8129 103.796C56.2689 104.011 55.6343 104.119 54.9089 104.119C54.1949 104.119 53.5659 104.011 53.0219 103.796C52.4779 103.569 52.0189 103.258 51.6449 102.861C51.2823 102.453 51.0046 101.966 50.8119 101.399C50.6306 100.832 50.5399 100.203 50.5399 99.512C50.5399 98.8207 50.6306 98.1917 50.8119 97.625C51.0046 97.0583 51.2879 96.5767 51.6619 96.18C52.0359 95.772 52.4949 95.4547 53.0389 95.228C53.5829 95.0013 54.2063 94.888 54.9089 94.888ZM54.9089 102.436C55.3509 102.436 55.7249 102.362 56.0309 102.215C56.3483 102.056 56.6033 101.847 56.7959 101.586C56.9999 101.325 57.1473 101.019 57.2379 100.668C57.3399 100.317 57.3909 99.937 57.3909 99.529C57.3909 99.121 57.3399 98.7413 57.2379 98.39C57.1473 98.0273 56.9999 97.7157 56.7959 97.455C56.6033 97.1943 56.3483 96.9903 56.0309 96.843C55.7249 96.6957 55.3509 96.622 54.9089 96.622C54.4783 96.622 54.1043 96.6957 53.7869 96.843C53.4809 96.9903 53.2259 97.1943 53.0219 97.455C52.8293 97.7157 52.6819 98.0273 52.5799 98.39C52.4893 98.7413 52.4439 99.121 52.4439 99.529C52.4439 99.937 52.4893 100.317 52.5799 100.668C52.6819 101.019 52.8293 101.325 53.0219 101.586C53.2259 101.847 53.4809 102.056 53.7869 102.215C54.1043 102.362 54.4783 102.436 54.9089 102.436ZM61.8597 98.237C61.8937 97.693 61.9163 97.166 61.9277 96.656C61.939 96.1347 61.9447 95.5963 61.9447 95.041H68.8467V102.351H70.0197V106.618H68.1327V104H62.0127V106.618H60.1257V102.351C60.4543 102.351 60.7263 102.249 60.9417 102.045C61.1683 101.83 61.3213 101.592 61.4007 101.331C61.48 101.15 61.548 100.906 61.6047 100.6C61.6613 100.283 61.7067 99.971 61.7407 99.665C61.7747 99.359 61.803 99.0757 61.8257 98.815C61.8483 98.5543 61.8597 98.3617 61.8597 98.237ZM66.9087 96.724H63.7127C63.69 97.132 63.673 97.574 63.6617 98.05C63.6503 98.526 63.6333 98.985 63.6107 99.427C63.588 99.6423 63.5653 99.8747 63.5427 100.124C63.5313 100.373 63.503 100.628 63.4577 100.889C63.4123 101.138 63.35 101.388 63.2707 101.637C63.1913 101.886 63.0837 102.124 62.9477 102.351H66.9087V96.724ZM73.1819 98.237C73.2159 97.693 73.2386 97.166 73.2499 96.656C73.2613 96.1347 73.2669 95.5963 73.2669 95.041H80.1689V102.351H81.3419V106.618H79.4549V104H73.3349V106.618H71.4479V102.351C71.7766 102.351 72.0486 102.249 72.2639 102.045C72.4906 101.83 72.6436 101.592 72.7229 101.331C72.8023 101.15 72.8703 100.906 72.9269 100.6C72.9836 100.283 73.0289 99.971 73.0629 99.665C73.0969 99.359 73.1253 99.0757 73.1479 98.815C73.1706 98.5543 73.1819 98.3617 73.1819 98.237ZM78.2309 96.724H75.0349C75.0123 97.132 74.9953 97.574 74.9839 98.05C74.9726 98.526 74.9556 98.985 74.9329 99.427C74.9103 99.6423 74.8876 99.8747 74.8649 100.124C74.8536 100.373 74.8253 100.628 74.7799 100.889C74.7346 101.138 74.6723 101.388 74.5929 101.637C74.5136 101.886 74.4059 102.124 74.2699 102.351H78.2309V96.724ZM84.2865 100.175C84.3092 100.504 84.3772 100.81 84.4905 101.093C84.6039 101.376 84.7569 101.626 84.9495 101.841C85.1422 102.045 85.3802 102.209 85.6635 102.334C85.9582 102.459 86.2982 102.521 86.6835 102.521C87.0915 102.521 87.4655 102.447 87.8055 102.3C88.1569 102.153 88.4119 101.898 88.5705 101.535H90.5595C90.4462 101.988 90.2592 102.379 89.9985 102.708C89.7492 103.037 89.4489 103.309 89.0975 103.524C88.7575 103.728 88.3779 103.881 87.9585 103.983C87.5505 104.074 87.1142 104.119 86.6495 104.119C85.9355 104.119 85.3065 104.011 84.7625 103.796C84.2299 103.581 83.7822 103.269 83.4195 102.861C83.0569 102.453 82.7849 101.971 82.6035 101.416C82.4335 100.849 82.3485 100.215 82.3485 99.512C82.3485 98.832 82.4449 98.2143 82.6375 97.659C82.8302 97.0923 83.1079 96.605 83.4705 96.197C83.8445 95.789 84.2922 95.4717 84.8135 95.245C85.3349 95.007 85.9299 94.888 86.5985 94.888C87.3012 94.888 87.9075 95.007 88.4175 95.245C88.9275 95.4717 89.3525 95.7833 89.6925 96.18C90.0439 96.5767 90.3045 97.0413 90.4745 97.574C90.6445 98.1067 90.7295 98.6847 90.7295 99.308C90.7295 99.6027 90.7125 99.8917 90.6785 100.175H84.2865ZM88.8425 98.713C88.8085 98.0103 88.5875 97.4777 88.1795 97.115C87.7829 96.7523 87.2615 96.571 86.6155 96.571C86.2529 96.571 85.9355 96.6277 85.6635 96.741C85.3915 96.8543 85.1592 97.0073 84.9665 97.2C84.7852 97.3927 84.6379 97.6193 84.5245 97.88C84.4112 98.1407 84.3375 98.4183 84.3035 98.713H88.8425ZM94.4214 107.485H92.4834V95.041H94.3194L94.4214 96.316C94.7501 95.8513 95.1751 95.5 95.6964 95.262C96.2291 95.0127 96.7844 94.888 97.3624 94.888C97.9744 94.888 98.5241 95.0013 99.0114 95.228C99.4988 95.4433 99.9124 95.7493 100.252 96.146C100.604 96.5427 100.864 97.0243 101.034 97.591C101.216 98.1463 101.306 98.781 101.306 99.495C101.306 100.164 101.221 100.781 101.051 101.348C100.881 101.915 100.626 102.408 100.286 102.827C99.9578 103.235 99.5441 103.552 99.0454 103.779C98.5581 104.006 97.9631 104.119 97.2604 104.119C96.7164 104.119 96.1951 104.034 95.6964 103.864C95.2091 103.683 94.7841 103.388 94.4214 102.98V107.485ZM96.9544 102.436C97.3738 102.436 97.7364 102.362 98.0424 102.215C98.3484 102.056 98.5978 101.847 98.7904 101.586C98.9944 101.325 99.1418 101.019 99.2324 100.668C99.3344 100.317 99.3854 99.937 99.3854 99.529C99.3854 99.121 99.3344 98.7413 99.2324 98.39C99.1418 98.0273 98.9944 97.7157 98.7904 97.455C98.5978 97.1943 98.3428 96.9903 98.0254 96.843C97.7194 96.6957 97.3511 96.622 96.9204 96.622C96.5351 96.622 96.1781 96.7013 95.8494 96.86C95.5321 97.0187 95.2658 97.2283 95.0504 97.489C94.8351 97.7497 94.6708 98.0613 94.5574 98.424C94.4554 98.7753 94.4044 99.138 94.4044 99.512C94.4044 99.92 94.4554 100.305 94.5574 100.668C94.6594 101.019 94.8124 101.325 95.0164 101.586C95.2318 101.835 95.4981 102.039 95.8154 102.198C96.1328 102.357 96.5124 102.436 96.9544 102.436ZM107.688 104V100.379H106.294L104.22 104H101.942L104.781 99.308L102.18 95.041H104.339L106.43 98.713H107.688V95.041H109.609V98.713H110.867L112.958 95.041H115.117L112.516 99.308L115.355 104H113.077L111.003 100.379H109.609V104H107.688ZM116.556 104V95.041H118.477V98.696H119.854L122.149 95.041H124.359L121.52 99.308L124.58 104H122.336L119.973 100.379H118.477V104H116.556ZM131.284 102.895C130.989 103.314 130.598 103.626 130.111 103.83C129.624 104.023 129.08 104.119 128.479 104.119C128.003 104.119 127.567 104.062 127.17 103.949C126.785 103.836 126.445 103.666 126.15 103.439C125.855 103.201 125.623 102.912 125.453 102.572C125.283 102.221 125.198 101.824 125.198 101.382C125.198 100.895 125.294 100.481 125.487 100.141C125.68 99.7897 125.94 99.5063 126.269 99.291C126.609 99.0757 127.006 98.917 127.459 98.815C127.912 98.7017 128.388 98.645 128.887 98.645H131.182C131.182 97.9877 131.035 97.4777 130.74 97.115C130.445 96.7523 129.93 96.5653 129.193 96.554C128.762 96.554 128.388 96.6277 128.071 96.775C127.765 96.9223 127.561 97.166 127.459 97.506H125.47C125.538 97.03 125.691 96.6277 125.929 96.299C126.178 95.9703 126.473 95.6983 126.813 95.483C127.164 95.2677 127.55 95.1147 127.969 95.024C128.4 94.9333 128.83 94.888 129.261 94.888C129.816 94.888 130.332 94.9617 130.808 95.109C131.284 95.2563 131.698 95.5057 132.049 95.857C132.446 96.265 132.712 96.7523 132.848 97.319C132.984 97.8857 133.052 98.5033 133.052 99.172V104H131.369L131.284 102.895ZM131.182 100.022H129.312C128.983 100.022 128.655 100.05 128.326 100.107C127.997 100.152 127.714 100.271 127.476 100.464C127.249 100.645 127.136 100.912 127.136 101.263C127.136 101.694 127.289 102.022 127.595 102.249C127.912 102.464 128.298 102.572 128.751 102.572C129.102 102.572 129.425 102.527 129.72 102.436C130.026 102.345 130.287 102.198 130.502 101.994C130.717 101.779 130.882 101.512 130.995 101.195C131.12 100.866 131.182 100.475 131.182 100.022Z" fill="#0862EE"/>
</svg>
