<svg width="171" height="170" viewBox="0 0 171 170" fill="none" xmlns="http://www.w3.org/2000/svg">
<rect x="63.7141" y="2.89111" width="120" height="120" rx="10" transform="rotate(30 63.7141 2.89111)" fill="#CAD2FF"/>
<rect x="85.675" y="1.41421" width="118" height="118" rx="9" transform="rotate(45 85.675 1.41421)" fill="white" stroke="#0862EE" stroke-width="2"/>
<path d="M99.8143 65.835C98.86 68.0917 97.3674 70.0803 95.4671 71.6269C93.5667 73.1736 91.3164 74.2311 88.9129 74.7072C86.5094 75.1832 84.0259 75.0632 81.6795 74.3577C79.3331 73.6522 77.1952 72.3826 75.4528 70.66C73.7104 68.9374 72.4165 66.8141 71.6842 64.4759C70.9519 62.1377 70.8036 59.6557 71.2522 57.2469C71.7007 54.8382 72.7325 52.5759 74.2573 50.658C75.7822 48.7401 77.7536 47.225 79.9993 46.245" stroke="#CFE5FF" stroke-width="3" stroke-linecap="round" stroke-linejoin="round"/>
<path d="M100.999 60C100.999 58.0302 100.611 56.0796 99.8575 54.2597C99.1036 52.4399 97.9987 50.7863 96.6059 49.3934C95.213 48.0005 93.5594 46.8956 91.7395 46.1418C89.9196 45.388 87.9691 45 85.9993 45V60H100.999Z" stroke="#CFE5FF" stroke-width="3" stroke-linecap="round" stroke-linejoin="round"/>
<path d="M42.8561 93.596C42.0741 93.596 41.4111 93.7717 40.8671 94.123C40.3231 94.463 39.9717 94.9277 39.8131 95.517H37.8581C37.9601 94.905 38.1641 94.3667 38.4701 93.902C38.7761 93.4373 39.1557 93.052 39.6091 92.746C40.0624 92.44 40.5724 92.2133 41.1391 92.066C41.7057 91.9073 42.2951 91.828 42.9071 91.828C43.8591 91.828 44.6807 91.9923 45.3721 92.321C46.0634 92.6383 46.6301 93.0747 47.0721 93.63C47.5254 94.1853 47.8597 94.8427 48.0751 95.602C48.2904 96.3613 48.3981 97.1717 48.3981 98.033C48.3981 98.9057 48.2791 99.716 48.0411 100.464C47.8144 101.201 47.4687 101.841 47.0041 102.385C46.5394 102.929 45.9557 103.354 45.2531 103.66C44.5504 103.966 43.7344 104.119 42.8051 104.119C42.1931 104.119 41.6037 104.051 41.0371 103.915C40.4704 103.768 39.9604 103.547 39.5071 103.252C39.0537 102.946 38.6684 102.566 38.3511 102.113C38.0451 101.648 37.8411 101.099 37.7391 100.464H39.7451C39.8357 100.804 39.9831 101.099 40.1871 101.348C40.4024 101.586 40.6461 101.779 40.9181 101.926C41.2014 102.073 41.5074 102.181 41.8361 102.249C42.1647 102.317 42.4991 102.351 42.8391 102.351C43.3831 102.351 43.8647 102.266 44.2841 102.096C44.7147 101.915 45.0774 101.671 45.3721 101.365C45.6667 101.048 45.8934 100.674 46.0521 100.243C46.2107 99.8123 46.3014 99.3477 46.3241 98.849H41.2071V97.132H46.3241C46.2901 96.656 46.1937 96.2027 46.0351 95.772C45.8764 95.3413 45.6554 94.9673 45.3721 94.65C45.0887 94.3213 44.7374 94.0663 44.3181 93.885C43.8987 93.6923 43.4114 93.596 42.8561 93.596ZM50.1812 104V95.041H52.1022V98.696H53.4792L55.7742 95.041H57.9842L55.1452 99.308L58.2052 104H55.9612L53.5982 100.379H52.1022V104H50.1812ZM63.0734 104.119C62.3594 104.119 61.7304 104.011 61.1864 103.796C60.6538 103.569 60.2061 103.258 59.8434 102.861C59.4921 102.453 59.2258 101.971 59.0444 101.416C58.8744 100.849 58.7894 100.226 58.7894 99.546C58.7894 98.866 58.8801 98.2427 59.0614 97.676C59.2541 97.1093 59.5374 96.622 59.9114 96.214C60.2854 95.806 60.7388 95.483 61.2714 95.245C61.8041 95.007 62.4218 94.888 63.1244 94.888C63.6231 94.888 64.0821 94.9447 64.5014 95.058C64.9321 95.16 65.3118 95.3357 65.6404 95.585C65.9691 95.823 66.2524 96.129 66.4904 96.503C66.7284 96.8657 66.8928 97.3077 66.9834 97.829H64.9774C64.8754 97.4437 64.6544 97.149 64.3144 96.945C63.9858 96.7297 63.5778 96.622 63.0904 96.622C62.6598 96.622 62.2914 96.7013 61.9854 96.86C61.6794 97.0187 61.4301 97.234 61.2374 97.506C61.0448 97.778 60.9031 98.0953 60.8124 98.458C60.7331 98.8093 60.6934 99.1777 60.6934 99.563C60.6934 99.9597 60.7388 100.334 60.8294 100.685C60.9201 101.036 61.0618 101.342 61.2544 101.603C61.4584 101.852 61.7134 102.056 62.0194 102.215C62.3254 102.362 62.6938 102.436 63.1244 102.436C63.6344 102.436 64.0538 102.323 64.3824 102.096C64.7224 101.869 64.9378 101.569 65.0284 101.195H67.0174C66.9268 101.705 66.7568 102.147 66.5074 102.521C66.2694 102.895 65.9748 103.201 65.6234 103.439C65.2721 103.677 64.8811 103.853 64.4504 103.966C64.0198 104.068 63.5608 104.119 63.0734 104.119ZM68.6753 104V95.041H76.5293V104H74.5913V96.724H70.6133V104H68.6753ZM80.2343 100.175C80.2569 100.504 80.3249 100.81 80.4383 101.093C80.5516 101.376 80.7046 101.626 80.8973 101.841C81.0899 102.045 81.3279 102.209 81.6113 102.334C81.9059 102.459 82.2459 102.521 82.6313 102.521C83.0393 102.521 83.4133 102.447 83.7533 102.3C84.1046 102.153 84.3596 101.898 84.5183 101.535H86.5073C86.3939 101.988 86.2069 102.379 85.9463 102.708C85.6969 103.037 85.3966 103.309 85.0453 103.524C84.7053 103.728 84.3256 103.881 83.9063 103.983C83.4983 104.074 83.0619 104.119 82.5973 104.119C81.8833 104.119 81.2543 104.011 80.7103 103.796C80.1776 103.581 79.7299 103.269 79.3673 102.861C79.0046 102.453 78.7326 101.971 78.5513 101.416C78.3813 100.849 78.2963 100.215 78.2963 99.512C78.2963 98.832 78.3926 98.2143 78.5853 97.659C78.7779 97.0923 79.0556 96.605 79.4183 96.197C79.7923 95.789 80.2399 95.4717 80.7613 95.245C81.2826 95.007 81.8776 94.888 82.5463 94.888C83.2489 94.888 83.8553 95.007 84.3653 95.245C84.8753 95.4717 85.3003 95.7833 85.6403 96.18C85.9916 96.5767 86.2523 97.0413 86.4223 97.574C86.5923 98.1067 86.6773 98.6847 86.6773 99.308C86.6773 99.6027 86.6603 99.8917 86.6263 100.175H80.2343ZM84.7903 98.713C84.7563 98.0103 84.5353 97.4777 84.1273 97.115C83.7306 96.7523 83.2093 96.571 82.5633 96.571C82.2006 96.571 81.8833 96.6277 81.6113 96.741C81.3393 96.8543 81.1069 97.0073 80.9143 97.2C80.7329 97.3927 80.5856 97.6193 80.4723 97.88C80.3589 98.1407 80.2853 98.4183 80.2513 98.713H84.7903ZM90.3692 107.485H88.4312V95.041H90.2672L90.3692 96.316C90.6979 95.8513 91.1229 95.5 91.6442 95.262C92.1769 95.0127 92.7322 94.888 93.3102 94.888C93.9222 94.888 94.4719 95.0013 94.9592 95.228C95.4465 95.4433 95.8602 95.7493 96.2002 96.146C96.5515 96.5427 96.8122 97.0243 96.9822 97.591C97.1635 98.1463 97.2542 98.781 97.2542 99.495C97.2542 100.164 97.1692 100.781 96.9992 101.348C96.8292 101.915 96.5742 102.408 96.2342 102.827C95.9055 103.235 95.4919 103.552 94.9932 103.779C94.5059 104.006 93.9109 104.119 93.2082 104.119C92.6642 104.119 92.1429 104.034 91.6442 103.864C91.1569 103.683 90.7319 103.388 90.3692 102.98V107.485ZM92.9022 102.436C93.3215 102.436 93.6842 102.362 93.9902 102.215C94.2962 102.056 94.5455 101.847 94.7382 101.586C94.9422 101.325 95.0895 101.019 95.1802 100.668C95.2822 100.317 95.3332 99.937 95.3332 99.529C95.3332 99.121 95.2822 98.7413 95.1802 98.39C95.0895 98.0273 94.9422 97.7157 94.7382 97.455C94.5455 97.1943 94.2905 96.9903 93.9732 96.843C93.6672 96.6957 93.2989 96.622 92.8682 96.622C92.4829 96.622 92.1259 96.7013 91.7972 96.86C91.4799 97.0187 91.2135 97.2283 90.9982 97.489C90.7829 97.7497 90.6185 98.0613 90.5052 98.424C90.4032 98.7753 90.3522 99.138 90.3522 99.512C90.3522 99.92 90.4032 100.305 90.5052 100.668C90.6072 101.019 90.7602 101.325 90.9642 101.586C91.1795 101.835 91.4459 102.039 91.7632 102.198C92.0805 102.357 92.4602 102.436 92.9022 102.436ZM105.944 95.041V96.724H102.918V104H100.997V96.724H97.9706V95.041H105.944ZM108.86 104H107.058V95.041H108.996V101.195L113.552 95.041H115.303V104H113.365V97.965C113.354 97.9877 111.852 99.9993 108.86 104ZM123.3 99.206C123.776 99.3647 124.127 99.6253 124.354 99.988C124.58 100.339 124.694 100.736 124.694 101.178C124.694 101.201 124.694 101.223 124.694 101.246C124.694 101.813 124.58 102.283 124.354 102.657C124.127 103.031 123.821 103.331 123.436 103.558C123.062 103.773 122.654 103.921 122.212 104C121.781 104.079 121.339 104.119 120.886 104.119C120.444 104.119 119.99 104.079 119.526 104C119.072 103.909 118.653 103.756 118.268 103.541C117.894 103.326 117.582 103.042 117.333 102.691C117.083 102.34 116.942 101.898 116.908 101.365H118.778C118.823 101.592 118.919 101.779 119.067 101.926C119.225 102.073 119.407 102.192 119.611 102.283C119.815 102.374 120.03 102.436 120.257 102.47C120.483 102.504 120.693 102.521 120.886 102.521C121.09 102.521 121.311 102.51 121.549 102.487C121.787 102.453 121.996 102.396 122.178 102.317C122.37 102.226 122.529 102.107 122.654 101.96C122.778 101.801 122.841 101.597 122.841 101.348C122.841 100.917 122.676 100.628 122.348 100.481C122.03 100.334 121.628 100.26 121.141 100.26H119.645V98.73H120.988C121.407 98.73 121.764 98.645 122.059 98.475C122.353 98.305 122.501 98.0103 122.501 97.591C122.501 97.3757 122.444 97.2 122.331 97.064C122.229 96.9167 122.098 96.8033 121.94 96.724C121.781 96.6447 121.605 96.5937 121.413 96.571C121.22 96.537 121.05 96.52 120.903 96.52C120.71 96.52 120.512 96.537 120.308 96.571C120.104 96.5937 119.911 96.6447 119.73 96.724C119.548 96.8033 119.395 96.911 119.271 97.047C119.146 97.183 119.072 97.3587 119.05 97.574H117.197C117.242 97.0413 117.384 96.605 117.622 96.265C117.86 95.9137 118.154 95.636 118.506 95.432C118.857 95.228 119.242 95.0863 119.662 95.007C120.092 94.9277 120.517 94.888 120.937 94.888C121.356 94.888 121.764 94.9277 122.161 95.007C122.569 95.0863 122.943 95.2337 123.283 95.449C123.623 95.6643 123.883 95.925 124.065 96.231C124.257 96.5257 124.354 96.911 124.354 97.387C124.354 97.8177 124.252 98.186 124.048 98.492C123.855 98.798 123.606 99.036 123.3 99.206ZM132.196 102.895C131.901 103.314 131.51 103.626 131.023 103.83C130.535 104.023 129.991 104.119 129.391 104.119C128.915 104.119 128.478 104.062 128.082 103.949C127.696 103.836 127.356 103.666 127.062 103.439C126.767 103.201 126.535 102.912 126.365 102.572C126.195 102.221 126.11 101.824 126.11 101.382C126.11 100.895 126.206 100.481 126.399 100.141C126.591 99.7897 126.852 99.5063 127.181 99.291C127.521 99.0757 127.917 98.917 128.371 98.815C128.824 98.7017 129.3 98.645 129.799 98.645H132.094C132.094 97.9877 131.946 97.4777 131.652 97.115C131.357 96.7523 130.841 96.5653 130.105 96.554C129.674 96.554 129.3 96.6277 128.983 96.775C128.677 96.9223 128.473 97.166 128.371 97.506H126.382C126.45 97.03 126.603 96.6277 126.841 96.299C127.09 95.9703 127.385 95.6983 127.725 95.483C128.076 95.2677 128.461 95.1147 128.881 95.024C129.311 94.9333 129.742 94.888 130.173 94.888C130.728 94.888 131.244 94.9617 131.72 95.109C132.196 95.2563 132.609 95.5057 132.961 95.857C133.357 96.265 133.624 96.7523 133.76 97.319C133.896 97.8857 133.964 98.5033 133.964 99.172V104H132.281L132.196 102.895ZM132.094 100.022H130.224C129.895 100.022 129.566 100.05 129.238 100.107C128.909 100.152 128.626 100.271 128.388 100.464C128.161 100.645 128.048 100.912 128.048 101.263C128.048 101.694 128.201 102.022 128.507 102.249C128.824 102.464 129.209 102.572 129.663 102.572C130.014 102.572 130.337 102.527 130.632 102.436C130.938 102.345 131.198 102.198 131.414 101.994C131.629 101.779 131.793 101.512 131.907 101.195C132.031 100.866 132.094 100.475 132.094 100.022Z" fill="#0862EE"/>
</svg>
