<svg width="170" height="170" viewBox="0 0 170 170" fill="none" xmlns="http://www.w3.org/2000/svg">
<rect x="62.8918" y="2.89111" width="120" height="120" rx="10" transform="rotate(30 62.8918 2.89111)" fill="#CAD2FF"/>
<rect x="84.8528" y="1.41421" width="118" height="118" rx="9" transform="rotate(45 84.8528 1.41421)" fill="white" stroke="#0862EE" stroke-width="2"/>
<path d="M94.177 66L100.177 60L94.177 54" stroke="#CFE5FF" stroke-width="3" stroke-linecap="round" stroke-linejoin="round"/>
<path d="M76.177 54L70.177 60L76.177 66" stroke="#CFE5FF" stroke-width="3" stroke-linecap="round" stroke-linejoin="round"/>
<path d="M88.927 48L81.427 72" stroke="#CFE5FF" stroke-width="3" stroke-linecap="round" stroke-linejoin="round"/>
<path d="M40.6354 107.179V102.249H40.7714C41.1228 102.249 41.4061 102.158 41.6214 101.977C41.8481 101.784 42.0294 101.524 42.1654 101.195C42.3014 100.866 42.3978 100.487 42.4544 100.056C42.5224 99.614 42.5734 99.138 42.6074 98.628C42.6754 97.4947 42.7151 96.3897 42.7264 95.313C42.7491 94.225 42.7718 93.1143 42.7944 91.981H50.9714V102.249H52.4164V107.179H50.4614V104H42.5904V107.179H40.6354ZM48.9994 102.249V93.749H44.6644L44.5454 98.016C44.5341 98.288 44.5171 98.6053 44.4944 98.968C44.4831 99.3193 44.4548 99.6877 44.4094 100.073C44.3754 100.447 44.3188 100.827 44.2394 101.212C44.1601 101.586 44.0581 101.932 43.9334 102.249H48.9994ZM57.781 94.888C58.495 94.888 59.124 95.0013 59.668 95.228C60.212 95.4547 60.671 95.772 61.045 96.18C61.4303 96.5767 61.7193 97.0583 61.912 97.625C62.1047 98.1917 62.201 98.8207 62.201 99.512C62.201 100.215 62.1047 100.849 61.912 101.416C61.7307 101.971 61.453 102.453 61.079 102.861C60.705 103.269 60.2403 103.581 59.685 103.796C59.141 104.011 58.5063 104.119 57.781 104.119C57.067 104.119 56.438 104.011 55.894 103.796C55.35 103.569 54.891 103.258 54.517 102.861C54.1543 102.453 53.8767 101.966 53.684 101.399C53.5027 100.832 53.412 100.203 53.412 99.512C53.412 98.8207 53.5027 98.1917 53.684 97.625C53.8767 97.0583 54.16 96.5767 54.534 96.18C54.908 95.772 55.367 95.4547 55.911 95.228C56.455 95.0013 57.0783 94.888 57.781 94.888ZM57.781 102.436C58.223 102.436 58.597 102.362 58.903 102.215C59.2203 102.056 59.4753 101.847 59.668 101.586C59.872 101.325 60.0193 101.019 60.11 100.668C60.212 100.317 60.263 99.937 60.263 99.529C60.263 99.121 60.212 98.7413 60.11 98.39C60.0193 98.0273 59.872 97.7157 59.668 97.455C59.4753 97.1943 59.2203 96.9903 58.903 96.843C58.597 96.6957 58.223 96.622 57.781 96.622C57.3503 96.622 56.9763 96.6957 56.659 96.843C56.353 96.9903 56.098 97.1943 55.894 97.455C55.7013 97.7157 55.554 98.0273 55.452 98.39C55.3613 98.7413 55.316 99.121 55.316 99.529C55.316 99.937 55.3613 100.317 55.452 100.668C55.554 101.019 55.7013 101.325 55.894 101.586C56.098 101.847 56.353 102.056 56.659 102.215C56.9763 102.362 57.3503 102.436 57.781 102.436ZM65.9 107.485H63.962V95.041H65.798L65.9 96.316C66.2286 95.8513 66.6536 95.5 67.175 95.262C67.7076 95.0127 68.263 94.888 68.841 94.888C69.453 94.888 70.0026 95.0013 70.49 95.228C70.9773 95.4433 71.391 95.7493 71.731 96.146C72.0823 96.5427 72.343 97.0243 72.513 97.591C72.6943 98.1463 72.785 98.781 72.785 99.495C72.785 100.164 72.7 100.781 72.53 101.348C72.36 101.915 72.105 102.408 71.765 102.827C71.4363 103.235 71.0226 103.552 70.524 103.779C70.0366 104.006 69.4416 104.119 68.739 104.119C68.195 104.119 67.6736 104.034 67.175 103.864C66.6876 103.683 66.2626 103.388 65.9 102.98V107.485ZM68.433 102.436C68.8523 102.436 69.215 102.362 69.521 102.215C69.827 102.056 70.0763 101.847 70.269 101.586C70.473 101.325 70.6203 101.019 70.711 100.668C70.813 100.317 70.864 99.937 70.864 99.529C70.864 99.121 70.813 98.7413 70.711 98.39C70.6203 98.0273 70.473 97.7157 70.269 97.455C70.0763 97.1943 69.8213 96.9903 69.504 96.843C69.198 96.6957 68.8296 96.622 68.399 96.622C68.0136 96.622 67.6566 96.7013 67.328 96.86C67.0106 97.0187 66.7443 97.2283 66.529 97.489C66.3136 97.7497 66.1493 98.0613 66.036 98.424C65.934 98.7753 65.883 99.138 65.883 99.512C65.883 99.92 65.934 100.305 66.036 100.668C66.138 101.019 66.291 101.325 66.495 101.586C66.7103 101.835 66.9766 102.039 67.294 102.198C67.6113 102.357 67.991 102.436 68.433 102.436ZM80.2673 102.895C79.9727 103.314 79.5817 103.626 79.0943 103.83C78.607 104.023 78.063 104.119 77.4623 104.119C76.9863 104.119 76.55 104.062 76.1533 103.949C75.768 103.836 75.428 103.666 75.1333 103.439C74.8387 103.201 74.6063 102.912 74.4363 102.572C74.2663 102.221 74.1813 101.824 74.1813 101.382C74.1813 100.895 74.2777 100.481 74.4703 100.141C74.663 99.7897 74.9237 99.5063 75.2523 99.291C75.5923 99.0757 75.989 98.917 76.4423 98.815C76.8957 98.7017 77.3717 98.645 77.8703 98.645H80.1654C80.1654 97.9877 80.018 97.4777 79.7233 97.115C79.4287 96.7523 78.913 96.5653 78.1763 96.554C77.7457 96.554 77.3717 96.6277 77.0543 96.775C76.7483 96.9223 76.5443 97.166 76.4423 97.506H74.4533C74.5213 97.03 74.6743 96.6277 74.9123 96.299C75.1617 95.9703 75.4563 95.6983 75.7963 95.483C76.1477 95.2677 76.533 95.1147 76.9523 95.024C77.383 94.9333 77.8137 94.888 78.2443 94.888C78.7997 94.888 79.3153 94.9617 79.7913 95.109C80.2673 95.2563 80.681 95.5057 81.0324 95.857C81.429 96.265 81.6953 96.7523 81.8313 97.319C81.9674 97.8857 82.0354 98.5033 82.0354 99.172V104H80.3523L80.2673 102.895ZM80.1654 100.022H78.2953C77.9667 100.022 77.638 100.05 77.3093 100.107C76.9807 100.152 76.6973 100.271 76.4593 100.464C76.2327 100.645 76.1193 100.912 76.1193 101.263C76.1193 101.694 76.2723 102.022 76.5783 102.249C76.8957 102.464 77.281 102.572 77.7343 102.572C78.0857 102.572 78.4087 102.527 78.7033 102.436C79.0093 102.345 79.27 102.198 79.4853 101.994C79.7007 101.779 79.865 101.512 79.9783 101.195C80.103 100.866 80.1654 100.475 80.1654 100.022ZM85.6463 96.894C86.0089 96.4407 86.4623 96.1177 87.0063 95.925C87.5503 95.721 88.0999 95.619 88.6553 95.619C89.2673 95.619 89.8113 95.7153 90.2873 95.908C90.7746 96.1007 91.1883 96.3727 91.5283 96.724C91.8683 97.0753 92.1289 97.5003 92.3103 97.999C92.4916 98.4863 92.5823 99.036 92.5823 99.648C92.5823 100.305 92.4803 100.912 92.2763 101.467C92.0836 102.022 91.7946 102.498 91.4093 102.895C91.0353 103.28 90.5763 103.581 90.0323 103.796C89.4996 104.011 88.8933 104.119 88.2133 104.119C87.3179 104.108 86.5813 103.926 86.0033 103.575C85.4366 103.224 84.9889 102.77 84.6603 102.215C84.3316 101.66 84.1049 101.036 83.9803 100.345C83.8556 99.6423 83.7933 98.934 83.7933 98.22C83.7933 97.506 83.8443 96.775 83.9463 96.027C84.0596 95.279 84.2806 94.616 84.6093 94.038C84.8813 93.5847 85.1929 93.2277 85.5443 92.967C85.9069 92.695 86.3036 92.491 86.7343 92.355C87.1649 92.2077 87.6239 92.1 88.1113 92.032C88.5986 91.964 89.1029 91.896 89.6243 91.828C90.0209 91.7827 90.4233 91.7373 90.8313 91.692C91.2506 91.6467 91.6586 91.556 92.0553 91.42V93.273C91.8513 93.3637 91.5679 93.4373 91.2053 93.494C90.8426 93.5393 90.4573 93.5847 90.0493 93.63C89.6413 93.664 89.2389 93.7037 88.8423 93.749C88.4456 93.783 88.0943 93.8227 87.7883 93.868C87.4256 93.9247 87.1026 94.0493 86.8193 94.242C86.5473 94.4233 86.3263 94.65 86.1563 94.922C85.9863 95.1827 85.8616 95.4887 85.7823 95.84C85.7029 96.18 85.6576 96.5313 85.6463 96.894ZM88.2643 102.436C88.6496 102.436 88.9896 102.362 89.2843 102.215C89.5903 102.068 89.8453 101.881 90.0493 101.654C90.2533 101.416 90.4063 101.144 90.5083 100.838C90.6103 100.521 90.6613 100.192 90.6613 99.852C90.6613 99.5007 90.6046 99.172 90.4913 98.866C90.3893 98.5487 90.2363 98.2823 90.0323 98.067C89.8396 97.8403 89.6016 97.6647 89.3183 97.54C89.0349 97.4153 88.7119 97.353 88.3493 97.353C87.9753 97.353 87.6353 97.4153 87.3293 97.54C87.0346 97.6533 86.7796 97.8233 86.5643 98.05C86.3603 98.2653 86.1959 98.526 86.0713 98.832C85.9466 99.138 85.8786 99.4667 85.8673 99.818C85.8673 100.158 85.9126 100.487 86.0033 100.804C86.0939 101.11 86.2356 101.382 86.4283 101.62C86.6323 101.858 86.8816 102.056 87.1763 102.215C87.4823 102.362 87.8449 102.436 88.2643 102.436ZM98.3054 94.888C99.0194 94.888 99.6484 95.0013 100.192 95.228C100.736 95.4547 101.195 95.772 101.569 96.18C101.955 96.5767 102.244 97.0583 102.436 97.625C102.629 98.1917 102.725 98.8207 102.725 99.512C102.725 100.215 102.629 100.849 102.436 101.416C102.255 101.971 101.977 102.453 101.603 102.861C101.229 103.269 100.765 103.581 100.209 103.796C99.6654 104.011 99.0307 104.119 98.3054 104.119C97.5914 104.119 96.9624 104.011 96.4184 103.796C95.8744 103.569 95.4154 103.258 95.0414 102.861C94.6787 102.453 94.4011 101.966 94.2084 101.399C94.0271 100.832 93.9364 100.203 93.9364 99.512C93.9364 98.8207 94.0271 98.1917 94.2084 97.625C94.4011 97.0583 94.6844 96.5767 95.0584 96.18C95.4324 95.772 95.8914 95.4547 96.4354 95.228C96.9794 95.0013 97.6027 94.888 98.3054 94.888ZM98.3054 102.436C98.7474 102.436 99.1214 102.362 99.4274 102.215C99.7447 102.056 99.9997 101.847 100.192 101.586C100.396 101.325 100.544 101.019 100.634 100.668C100.736 100.317 100.787 99.937 100.787 99.529C100.787 99.121 100.736 98.7413 100.634 98.39C100.544 98.0273 100.396 97.7157 100.192 97.455C99.9997 97.1943 99.7447 96.9903 99.4274 96.843C99.1214 96.6957 98.7474 96.622 98.3054 96.622C97.8747 96.622 97.5007 96.6957 97.1834 96.843C96.8774 96.9903 96.6224 97.1943 96.4184 97.455C96.2257 97.7157 96.0784 98.0273 95.9764 98.39C95.8857 98.7413 95.8404 99.121 95.8404 99.529C95.8404 99.937 95.8857 100.317 95.9764 100.668C96.0784 101.019 96.2257 101.325 96.4184 101.586C96.6224 101.847 96.8774 102.056 97.1834 102.215C97.5007 102.362 97.8747 102.436 98.3054 102.436ZM111.473 95.041V96.724H108.447V104H106.526V96.724H103.5V95.041H111.473ZM112.588 104V95.041H114.509V98.696H115.886L118.181 95.041H120.391L117.552 99.308L120.612 104H118.368L116.005 100.379H114.509V104H112.588ZM123.504 104H121.702V95.041H123.64V101.195L128.196 95.041H129.947V104H128.009V97.965C127.998 97.9877 126.496 99.9993 123.504 104Z" fill="#0862EE"/>
</svg>
