<svg width="162" height="163" viewBox="0 0 162 163" fill="none" xmlns="http://www.w3.org/2000/svg">
<rect x="81.0018" y="2" width="76" height="76" rx="10" transform="rotate(45 81.0018 2)" fill="#E3E4F8"/>
<g filter="url(#filter0_d_398_842)">
<rect x="61.5507" y="5.64355" width="76" height="76" rx="10" transform="rotate(23.7807 61.5507 5.64355)" fill="white"/>
</g>
<path d="M93 48C93 44.8174 91.7357 41.7652 89.4853 39.5147C87.2348 37.2643 84.1826 36 81 36C77.8174 36 74.7652 37.2643 72.5147 39.5147C70.2643 41.7652 69 44.8174 69 48C69 62 63 66 63 66H99C99 66 93 62 93 48Z" stroke="#0862EE" stroke-width="3" stroke-linecap="round" stroke-linejoin="round"/>
<path d="M84.46 74C84.1084 74.6062 83.6037 75.1093 82.9964 75.4591C82.3892 75.8088 81.7007 75.9929 81 75.9929C80.2992 75.9929 79.6108 75.8088 79.0035 75.4591C78.3963 75.1093 77.8916 74.6062 77.54 74" stroke="#0862EE" stroke-width="3" stroke-linecap="round" stroke-linejoin="round"/>
<path d="M61 48C61 43.6 62.4 39.4 65 36" stroke="#0862EE" stroke-width="3" stroke-linecap="round" stroke-linejoin="round"/>
<path d="M101 48C101 43.6726 99.5964 39.4619 97 36" stroke="#0862EE" stroke-width="3" stroke-linecap="round" stroke-linejoin="round"/>
<defs>
<filter id="filter0_d_398_842" x="0.0853882" y="0.824463" width="161.832" height="161.832" filterUnits="userSpaceOnUse" color-interpolation-filters="sRGB">
<feFlood flood-opacity="0" result="BackgroundImageFix"/>
<feColorMatrix in="SourceAlpha" type="matrix" values="0 0 0 0 0 0 0 0 0 0 0 0 0 0 0 0 0 0 127 0" result="hardAlpha"/>
<feMorphology radius="10" operator="erode" in="SourceAlpha" result="effect1_dropShadow_398_842"/>
<feOffset dy="26"/>
<feGaussianBlur stdDeviation="22"/>
<feComposite in2="hardAlpha" operator="out"/>
<feColorMatrix type="matrix" values="0 0 0 0 0.222247 0 0 0 0 0.31766 0 0 0 0 0.858333 0 0 0 0.27 0"/>
<feBlend mode="normal" in2="BackgroundImageFix" result="effect1_dropShadow_398_842"/>
<feBlend mode="normal" in="SourceGraphic" in2="effect1_dropShadow_398_842" result="shape"/>
</filter>
</defs>
</svg>
